<svg xmlns="http://www.w3.org/2000/svg" xmlns:xlink="http://www.w3.org/1999/xlink" version="1.1" id="Capa_1" x="0px" y="0px" viewBox="0 0 501.213 501.213" style="enable-background:new 0 0 501.213 501.213;" xml:space="preserve" width="70" height="70" xmlns:svgjs="http://svgjs.dev/svgjs"><g width="100%" height="100%" transform="matrix(1,0,0,1,0,0)"><g>
	<path id="XMLID_718_" style="stroke-miterlimit: 10;" d="M368.88,178.123&#10;&#9;&#9;c22.75,31.899,36.12,70.93,36.12,113.09c0,107.7-87.3,195-195,195s-195-87.3-195-195s87.3-195,195-195&#10;&#9;&#9;c42.16,0,81.19,13.37,113.09,36.12" fill="none" fill-opacity="1" stroke="#ffffff" stroke-opacity="1" data-original-stroke-color="#000000ff" stroke-width="30" data-original-stroke-width="30"/>
	<path id="XMLID_721_" style="stroke-miterlimit: 10;" d="M328.46,226.423&#10;&#9;&#9;c10.55,19.229,16.54,41.309,16.54,64.79c0,74.56-60.44,135-135,135s-135-60.44-135-135c0-74.561,60.44-135,135-135&#10;&#9;&#9;c23.48,0,45.56,5.99,64.79,16.54" fill="none" fill-opacity="1" stroke="#ffffff" stroke-opacity="1" data-original-stroke-color="#000000ff" stroke-width="30" data-original-stroke-width="30"/>
	<path id="XMLID_722_" style="stroke-miterlimit: 10;" d="M267.34,242.883&#10;&#9;&#9;c11.021,13.05,17.66,29.92,17.66,48.33c0,41.42-33.58,75-75,75s-75-33.58-75-75s33.58-75,75-75c18.41,0,35.28,6.64,48.33,17.66" fill="none" fill-opacity="1" stroke="#ffffff" stroke-opacity="1" data-original-stroke-color="#000000ff" stroke-width="30" data-original-stroke-width="30"/>
	<polygon id="XMLID_723_" style="stroke-miterlimit: 10;" points="342.114,222.738 &#10;&#9;&#9;255,246.213 278.475,159.099 384.541,95.459 405.754,116.672 &#9;" fill="none" fill-opacity="1" stroke="#ffffff" stroke-opacity="1" data-original-stroke-color="#000000ff" stroke-width="30" data-original-stroke-width="30"/>
	<path id="XMLID_728_" style="stroke-miterlimit: 10;" d="M395.147,106.065l21.213,21.214&#10;&#9;&#9;c11.716,11.715,30.711,11.715,42.427,0L480,106.065l-21.213-21.213c-11.716-11.716-30.711-11.716-42.427,0L395.147,106.065z" fill="none" fill-opacity="1" stroke="#ffffff" stroke-opacity="1" data-original-stroke-color="#000000ff" stroke-width="30" data-original-stroke-width="30"/>
	<path id="XMLID_729_" style="stroke-miterlimit: 10;" d="M395.147,106.065l21.213,21.214&#10;&#9;&#9;c11.716,11.715,30.711,11.715,42.427,0L480,106.065l-21.213-21.213c-11.716-11.716-30.711-11.716-42.427,0L395.147,106.065z" fill="none" fill-opacity="1" stroke="#ffffff" stroke-opacity="1" data-original-stroke-color="#000000ff" stroke-width="30" data-original-stroke-width="30"/>
	<path id="XMLID_734_" style="stroke-miterlimit: 10;" d="M395.147,106.065l-21.214-21.213&#10;&#9;&#9;c-11.715-11.716-11.715-30.711,0-42.427l21.214-21.213l21.213,21.213c11.716,11.716,11.716,30.711,0,42.427L395.147,106.065z" fill="none" fill-opacity="1" stroke="#ffffff" stroke-opacity="1" data-original-stroke-color="#000000ff" stroke-width="30" data-original-stroke-width="30"/>
	
		<line id="XMLID_735_" style="stroke-miterlimit: 10;" x1="255" y1="246.213" x2="210" y2="291.213" fill="none" fill-opacity="1" stroke="#ffffff" stroke-opacity="1" data-original-stroke-color="#000000ff" stroke-width="30" data-original-stroke-width="30"/>
</g></g></svg>