<svg version="1.1" id="svg2853" xml:space="preserve" width="70" height="70" viewBox="0 0 682.66669 682.66669" xmlns="http://www.w3.org/2000/svg" xmlns:svg="http://www.w3.org/2000/svg" xmlns:xlink="http://www.w3.org/1999/xlink" xmlns:svgjs="http://svgjs.dev/svgjs"><g width="100%" height="100%" transform="matrix(1,0,0,1,0,0)"><defs id="defs2857"><clipPath clipPathUnits="userSpaceOnUse" id="clipPath2867"><path d="M 0,512 H 512 V 0 H 0 Z" id="path2865" fill="#ffffff" fill-opacity="1" data-original-color="#000000ff" stroke="none" stroke-opacity="1"/></clipPath></defs><g id="g2859" transform="matrix(1.3333333,0,0,-1.3333333,0,682.66667)"><g id="g2861"><g id="g2863" clip-path="url(#clipPath2867)"><g id="g2869" transform="translate(256,95)"><path d="m 0,0 v -20 h 141.005 v 40 l 78.42,95.06 C 232.726,131.182 240,151.432 240,172.332 V 310 c 0,16.568 -13.432,30 -30,30 -16.568,0 -30,-13.432 -30,-30 V 194.853 c 0,-7.957 -3.161,-15.587 -8.787,-21.213 L 98.579,101.005" style="stroke-linecap: round; stroke-linejoin: round; stroke-miterlimit: 10; stroke-dasharray: none;" id="path2871" fill="none" fill-opacity="1" stroke="#ffffff" stroke-opacity="1" data-original-stroke-color="#000000ff" stroke-width="30" data-original-stroke-width="30"/></g><g id="g2873" transform="translate(354.5767,196.0039)"><path d="m 0,0 60.21,60.21 c 11.715,11.715 11.716,30.707 0.003,42.423 -11.714,11.718 -30.71,11.72 -42.427,0.004 L -75.142,9.72 C -90.147,-5.283 -98.577,-25.633 -98.577,-46.852 v -74.152" style="stroke-linecap: round; stroke-linejoin: round; stroke-miterlimit: 10; stroke-dasharray: none;" id="path2875" fill="none" fill-opacity="1" stroke="#ffffff" stroke-opacity="1" data-original-stroke-color="#000000ff" stroke-width="30" data-original-stroke-width="30"/></g><g id="g2877" transform="translate(256,470.377)"><path d="m 0,0 -8.669,8.669 c -23.938,23.938 -62.75,23.938 -86.688,0 -23.939,-23.939 -23.939,-62.75 0,-86.689 L 0,-173.377 95.357,-78.02 c 23.939,23.939 23.939,62.75 0,86.689 -23.938,23.938 -62.75,23.938 -86.688,0 z" style="stroke-linecap: round; stroke-linejoin: round; stroke-miterlimit: 10; stroke-dasharray: none;" id="path2879" fill="none" fill-opacity="1" stroke="#ffffff" stroke-opacity="1" data-original-stroke-color="#000000ff" stroke-width="30" data-original-stroke-width="30"/></g><path d="M 427.01,75 H 256 V 15 h 171.01 z" style="stroke-linecap: round; stroke-linejoin: round; stroke-miterlimit: 10; stroke-dasharray: none;" id="path2881" fill="none" fill-opacity="1" stroke="#ffffff" stroke-opacity="1" data-original-stroke-color="#000000ff" stroke-width="30" data-original-stroke-width="30"/><g id="g2883" transform="translate(256,95)"><path d="m 0,0 v -20 h -141.005 v 40 l -78.42,95.06 C -232.726,131.182 -240,151.432 -240,172.332 V 310 c 0,16.568 13.432,30 30,30 16.568,0 30,-13.432 30,-30 V 194.853 c 0,-7.957 3.161,-15.587 8.787,-21.213 l 72.634,-72.635" style="stroke-linecap: round; stroke-linejoin: round; stroke-miterlimit: 10; stroke-dasharray: none;" id="path2885" fill="none" fill-opacity="1" stroke="#ffffff" stroke-opacity="1" data-original-stroke-color="#000000ff" stroke-width="30" data-original-stroke-width="30"/></g><g id="g2887" transform="translate(157.4233,196.0039)"><path d="m 0,0 -60.21,60.21 c -11.715,11.715 -11.716,30.707 -0.003,42.423 11.714,11.718 30.71,11.72 42.427,0.004 L 75.142,9.72 C 90.147,-5.283 98.577,-25.633 98.577,-46.852 v -74.152" style="stroke-linecap: round; stroke-linejoin: round; stroke-miterlimit: 10; stroke-dasharray: none;" id="path2889" fill="none" fill-opacity="1" stroke="#ffffff" stroke-opacity="1" data-original-stroke-color="#000000ff" stroke-width="30" data-original-stroke-width="30"/></g><path d="M 84.99,75 H 256 V 15 H 84.99 Z" style="stroke-linecap: round; stroke-linejoin: round; stroke-miterlimit: 10; stroke-dasharray: none;" id="path2891" fill="none" fill-opacity="1" stroke="#ffffff" stroke-opacity="1" data-original-stroke-color="#000000ff" stroke-width="30" data-original-stroke-width="30"/></g></g></g></g></svg>