<svg version="1.1" id="svg1371" xml:space="preserve" width="70" height="70" viewBox="0 0 682.66669 682.66669" xmlns="http://www.w3.org/2000/svg" xmlns:svg="http://www.w3.org/2000/svg" xmlns:xlink="http://www.w3.org/1999/xlink" xmlns:svgjs="http://svgjs.dev/svgjs"><g width="100%" height="100%" transform="matrix(1,0,0,1,0,0)"><defs id="defs1375"><clipPath clipPathUnits="userSpaceOnUse" id="clipPath1385"><path d="M 0,512 H 512 V 0 H 0 Z" id="path1383" fill="#ffffff" fill-opacity="1" data-original-color="#000000ff" stroke="none" stroke-opacity="1"/></clipPath></defs><g id="g1377" transform="matrix(1.3333333,0,0,-1.3333333,0,682.66667)"><g id="g1379"><g id="g1381" clip-path="url(#clipPath1385)"><g id="g1387" transform="translate(256,15)"><path d="m 0,0 c -90,0 -165,121 -165,121 0,0 75,120 165,120 C 90,241 165,121 165,121 165,121 90,0 0,0 Z" style="stroke-linecap: butt; stroke-linejoin: miter; stroke-miterlimit: 10; stroke-dasharray: none;" id="path1389" fill="none" fill-opacity="1" stroke="#ffffff" stroke-opacity="1" data-original-stroke-color="#000000ff" stroke-width="30" data-original-stroke-width="30"/></g><g id="g1391" transform="translate(316,136)"><path d="m 0,0 c 0,-33.137 -26.863,-60 -60,-60 -33.137,0 -60,26.863 -60,60 0,33.137 26.863,60 60,60 C -26.863,60 0,33.137 0,0 Z" style="stroke-linecap: butt; stroke-linejoin: miter; stroke-miterlimit: 10; stroke-dasharray: none;" id="path1393" fill="none" fill-opacity="1" stroke="#ffffff" stroke-opacity="1" data-original-stroke-color="#000000ff" stroke-width="30" data-original-stroke-width="30"/></g><g id="g1395" transform="translate(467,497)"><path d="M 0,0 V -301 H -94.75" style="stroke-linecap: butt; stroke-linejoin: miter; stroke-miterlimit: 10; stroke-dasharray: none;" id="path1397" fill="none" fill-opacity="1" stroke="#ffffff" stroke-opacity="1" data-original-stroke-color="#000000ff" stroke-width="30" data-original-stroke-width="30"/></g><g id="g1399" transform="translate(139.75,196)"><path d="M 0,0 H -94.75 V 301" style="stroke-linecap: butt; stroke-linejoin: miter; stroke-miterlimit: 10; stroke-dasharray: none;" id="path1401" fill="none" fill-opacity="1" stroke="#ffffff" stroke-opacity="1" data-original-stroke-color="#000000ff" stroke-width="30" data-original-stroke-width="30"/></g><g id="g1403" transform="translate(0,497)"><path d="M 0,0 H 512" style="stroke-linecap: butt; stroke-linejoin: miter; stroke-miterlimit: 10; stroke-dasharray: none;" id="path1405" fill="none" fill-opacity="1" stroke="#ffffff" stroke-opacity="1" data-original-stroke-color="#000000ff" stroke-width="30" data-original-stroke-width="30"/></g><g id="g1407" transform="translate(346,437)"><path d="M 0,0 H 60 V -60" style="stroke-linecap: butt; stroke-linejoin: miter; stroke-miterlimit: 10; stroke-dasharray: none;" id="path1409" fill="none" fill-opacity="1" stroke="#ffffff" stroke-opacity="1" data-original-stroke-color="#000000ff" stroke-width="30" data-original-stroke-width="30"/></g><g id="g1411" transform="translate(406,437)"><path d="m 0,0 -120,-120 -60,60 -120,-121" style="stroke-linecap: butt; stroke-linejoin: miter; stroke-miterlimit: 10; stroke-dasharray: none;" id="path1413" fill="none" fill-opacity="1" stroke="#ffffff" stroke-opacity="1" data-original-stroke-color="#000000ff" stroke-width="30" data-original-stroke-width="30"/></g><g id="g1415" transform="translate(256,121)"><path d="M 0,0 V 30" style="stroke-linecap: butt; stroke-linejoin: miter; stroke-miterlimit: 10; stroke-dasharray: none;" id="path1417" fill="none" fill-opacity="1" stroke="#ffffff" stroke-opacity="1" data-original-stroke-color="#000000ff" stroke-width="30" data-original-stroke-width="30"/></g></g></g></g></g></svg>